<?xml version="1.0" encoding="UTF-8" standalone="no" ?>
<!DOCTYPE svg PUBLIC "-//W3C//DTD SVG 1.1//EN" "http://www.w3.org/Graphics/SVG/1.1/DTD/svg11.dtd">
<svg xmlns="http://www.w3.org/2000/svg" xmlns:xlink="http://www.w3.org/1999/xlink" version="1.1" width="500" height="500" viewBox="0 0 500 500" xml:space="preserve">
<desc>Created with Fabric.js 4.6.0</desc>
<defs>
</defs>
<g transform="matrix(2.08 0 0 2.08 249.95 249.75)" id="960qgUxFs_9ZXeNhA4rBX"  >
<g style="" vector-effect="non-scaling-stroke"   >
		<g transform="matrix(1 0 0 1 78.67 -48.02)" id="IXshe51zsykXoVN-XJiZs"  >
<path style="stroke: rgb(97,107,15); stroke-width: 0; stroke-dasharray: none; stroke-linecap: butt; stroke-dashoffset: 0; stroke-linejoin: miter; stroke-miterlimit: 4; fill: rgb(98,115,217); fill-rule: nonzero; opacity: 1;" vector-effect="non-scaling-stroke"  transform=" translate(-41.33, -41.33)" d="M 41.32902 0 C 64.14264 0 82.65804 18.5154 82.65804 41.32902 C 82.65804 64.14264 64.14264 82.65804 41.32902 82.65804 C 18.5154 82.65804 0 64.14264 0 41.32902 C 0 18.5154 18.5154 0 41.32902 0 z" stroke-linecap="round" />
</g>
		<g transform="matrix(1 0 0 1 -78.67 -49.34)" id="fIdYKJ0PRwdCcJa4uXztJ"  >
<path style="stroke: rgb(97,107,15); stroke-width: 0; stroke-dasharray: none; stroke-linecap: butt; stroke-dashoffset: 0; stroke-linejoin: miter; stroke-miterlimit: 4; fill: rgb(98,115,217); fill-rule: nonzero; opacity: 1;" vector-effect="non-scaling-stroke"  transform=" translate(-41.33, -41.33)" d="M 41.32902 0 C 64.14264 0 82.65804 18.5154 82.65804 41.32902 C 82.65804 64.14264 64.14264 82.65804 41.32902 82.65804 C 18.5154 82.65804 0 64.14264 0 41.32902 C 0 18.5154 18.5154 0 41.32902 0 z" stroke-linecap="round" />
</g>
		<g transform="matrix(0.75 0 0 0.75 -80 -49.34)" id="UgOq-OMk3CN2ALKl9Vazn"  >
<path style="stroke: rgb(97,107,15); stroke-width: 0; stroke-dasharray: none; stroke-linecap: butt; stroke-dashoffset: 0; stroke-linejoin: miter; stroke-miterlimit: 4; fill: rgb(167,186,242); fill-rule: nonzero; opacity: 1;" vector-effect="non-scaling-stroke"  transform=" translate(0, 0)" d="M 0 -41.32902 C 22.81362 -41.32902 41.32902 -22.81362 41.32902 0 C 41.32902 22.81362 22.81362 41.32902 0 41.32902 C -22.81362 41.32902 -41.32902 22.81362 -41.32902 0 C -41.32902 -22.81362 -22.81362 -41.32902 0 -41.32902 z" stroke-linecap="round" />
</g>
		<g transform="matrix(0.75 0 0 0.75 80 -49.34)" id="cbh7LtgwdmRrQ0lo9SGlw"  >
<path style="stroke: rgb(97,107,15); stroke-width: 0; stroke-dasharray: none; stroke-linecap: butt; stroke-dashoffset: 0; stroke-linejoin: miter; stroke-miterlimit: 4; fill: rgb(167,186,242); fill-rule: nonzero; opacity: 1;" vector-effect="non-scaling-stroke"  transform=" translate(0, 0)" d="M 0 -41.32902 C 22.81362 -41.32902 41.32902 -22.81362 41.32902 0 C 41.32902 22.81362 22.81362 41.32902 0 41.32902 C -22.81362 41.32902 -41.32902 22.81362 -41.32902 0 C -41.32902 -22.81362 -22.81362 -41.32902 0 -41.32902 z" stroke-linecap="round" />
</g>
		<g transform="matrix(1 0 0 1 0 2.33)" id="ybdkzttQ8ntvOOF_TYFK6"  >
<path style="stroke: rgb(253,131,222); stroke-width: 0; stroke-dasharray: none; stroke-linecap: butt; stroke-dashoffset: 0; stroke-linejoin: miter; stroke-miterlimit: 4; fill: rgb(98,115,217); fill-rule: nonzero; opacity: 1;" vector-effect="non-scaling-stroke"  transform=" translate(-88.33, -88.33)" d="M 88.33063 0 C 137.08914 0 176.66126 39.57212 176.66126 88.33063 C 176.66126 137.08914 137.08914 176.66126 88.33063 176.66126 C 39.57212 176.66126 0 137.08914 0 88.33063 C 0 39.57212 39.57212 0 88.33063 0 z" stroke-linecap="round" />
</g>
		<g transform="matrix(1 0 0 1 20.51 -29.85)" id="8PelMBSnfAdC9axDpyCp8"  >
<g style="" vector-effect="non-scaling-stroke"   >
		<g transform="matrix(1.01 0 0 1.01 0 0)" id="6V_cUU1QqDYzEeBGgoJXe"  >
<path style="stroke: rgb(180,248,156); stroke-width: 0; stroke-dasharray: none; stroke-linecap: butt; stroke-dashoffset: 0; stroke-linejoin: miter; stroke-miterlimit: 4; fill: rgb(255,255,255); fill-rule: nonzero; opacity: 1;" vector-effect="non-scaling-stroke"  transform=" translate(0, 0)" d="M 0 -19.29825 C 10.65263 -19.29825 19.29825 -10.65263 19.29825 0 C 19.29825 10.65263 10.65263 19.29825 0 19.29825 C -10.65263 19.29825 -19.29825 10.65263 -19.29825 0 C -19.29825 -10.65263 -10.65263 -19.29825 0 -19.29825 z" stroke-linecap="round" />
</g>
		<g transform="matrix(1 0 0 1 -0.51 0.51)" id="l_4jcOkLZn2W_gv1dyJga"  >
<path style="stroke: rgb(12,18,89); stroke-width: 0; stroke-dasharray: none; stroke-linecap: butt; stroke-dashoffset: 0; stroke-linejoin: miter; stroke-miterlimit: 4; fill: rgb(0,0,0); fill-rule: nonzero; opacity: 1;" vector-effect="non-scaling-stroke"  transform=" translate(-5.29, -5.29)" d="M 5.29101 0 C 8.21165 0 10.58202 2.37037 10.58202 5.29101 C 10.58202 8.21165 8.21165 10.58202 5.29101 10.58202 C 2.37037 10.58202 0 8.21165 0 5.29101 C 0 2.37037 2.37037 0 5.29101 0 z" stroke-linecap="round" />
</g>
</g>
</g>
		<g transform="matrix(1 0 0 1 -20.51 -29.85)" id="fUaY234p0BDjoKE50Hqbo"  >
<g style="" vector-effect="non-scaling-stroke"   >
		<g transform="matrix(1.01 0 0 1.01 0 0)" id="2C32NuxtQzeg0vX7m1kQV"  >
<path style="stroke: rgb(180,248,156); stroke-width: 0; stroke-dasharray: none; stroke-linecap: butt; stroke-dashoffset: 0; stroke-linejoin: miter; stroke-miterlimit: 4; fill: rgb(255,255,255); fill-rule: nonzero; opacity: 1;" vector-effect="non-scaling-stroke"  transform=" translate(0, 0)" d="M 0 -19.29825 C 10.65263 -19.29825 19.29825 -10.65263 19.29825 0 C 19.29825 10.65263 10.65263 19.29825 0 19.29825 C -10.65263 19.29825 -19.29825 10.65263 -19.29825 0 C -19.29825 -10.65263 -10.65263 -19.29825 0 -19.29825 z" stroke-linecap="round" />
</g>
		<g transform="matrix(1 0 0 1 -0.51 0.51)" id="zl_PCX42cZ2_PkF6oL5RP"  >
<path style="stroke: rgb(12,18,89); stroke-width: 0; stroke-dasharray: none; stroke-linecap: butt; stroke-dashoffset: 0; stroke-linejoin: miter; stroke-miterlimit: 4; fill: rgb(0,0,0); fill-rule: nonzero; opacity: 1;" vector-effect="non-scaling-stroke"  transform=" translate(-5.29, -5.29)" d="M 5.29101 0 C 8.21165 0 10.58202 2.37037 10.58202 5.29101 C 10.58202 8.21165 8.21165 10.58202 5.29101 10.58202 C 2.37037 10.58202 0 8.21165 0 5.29101 C 0 2.37037 2.37037 0 5.29101 0 z" stroke-linecap="round" />
</g>
</g>
</g>
		<g transform="matrix(1 0 0 1 0 12.82)" id="OivDREyVVCQ5Yloyq3u9l"  >
<g style="" vector-effect="non-scaling-stroke"   >
		<g transform="matrix(0.38 0 0 0.35 0 -0.26)" id="lmISllV-VB1twP8MgY9ds"  >
<path style="stroke: rgb(216,210,173); stroke-width: 0; stroke-dasharray: none; stroke-linecap: butt; stroke-dashoffset: 0; stroke-linejoin: miter; stroke-miterlimit: 4; fill: rgb(59,66,191); fill-rule: nonzero; opacity: 1;" vector-effect="non-scaling-stroke"  transform=" translate(0, 0)" d="M -46.70818 -46.70818 L 46.70819 -46.70818 L 46.70819 46.70819 L -46.70818 46.70819 z" stroke-linecap="round" />
</g>
		<g transform="matrix(1.51 0 0 1.15 0.09 16.62)" id="U1jmRIK-FUERFC8nT6ld6"  >
<path style="stroke: rgb(123,42,237); stroke-width: 0; stroke-dasharray: none; stroke-linecap: butt; stroke-dashoffset: 0; stroke-linejoin: miter; stroke-miterlimit: 4; fill: rgb(59,66,191); fill-rule: nonzero; opacity: 1;" vector-effect="non-scaling-stroke"  transform=" translate(0, 0)" d="M 0 -11.56584 C 6.38434 -11.56584 11.56584 -6.3843499999999995 11.56584 0 C 11.56584 6.38434 6.3843499999999995 11.56584 0 11.56584 C -6.38434 11.56584 -11.56584 6.3843499999999995 -11.56584 0 C -11.56584 -6.38434 -6.3843499999999995 -11.56584 0 -11.56584 z" stroke-linecap="round" />
</g>
		<g transform="matrix(1.51 0 0 1.15 0 -16.62)" id="aN0SmhXmqjwP8iiACJeWj"  >
<path style="stroke: rgb(123,42,237); stroke-width: 0; stroke-dasharray: none; stroke-linecap: butt; stroke-dashoffset: 0; stroke-linejoin: miter; stroke-miterlimit: 4; fill: rgb(59,66,191); fill-rule: nonzero; opacity: 1;" vector-effect="non-scaling-stroke"  transform=" translate(0, 0)" d="M 0 -11.56584 C 6.38434 -11.56584 11.56584 -6.3843499999999995 11.56584 0 C 11.56584 6.38434 6.3843499999999995 11.56584 0 11.56584 C -6.38434 11.56584 -11.56584 6.3843499999999995 -11.56584 0 C -11.56584 -6.38434 -6.3843499999999995 -11.56584 0 -11.56584 z" stroke-linecap="round" />
</g>
</g>
</g>
</g>
</g>
</svg>